<mxfile host="app.diagrams.net" agent="Mozilla/5.0 (Macintosh; Intel Mac OS X 10_15_7) AppleWebKit/537.36 (KHTML, like Gecko) Chrome/130.0.0.0 Safari/537.36" version="24.8.2">
  <diagram name="Page-1" id="lr0-X24pAP4Xt2pcBkmZ">
    <mxGraphModel>
      <root>
        <mxCell id="0" />
        <mxCell id="1" parent="0" />
        <mxCell id="2" value="Retraining" style="whiteSpace=wrap;strokeWidth=2;" vertex="1" parent="1">
          <mxGeometry x="88" y="1072" width="447" height="99" as="geometry" />
        </mxCell>
        <mxCell id="3" value="Monitoring" style="whiteSpace=wrap;strokeWidth=2;" vertex="1" parent="1">
          <mxGeometry x="8" y="923" width="330" height="99" as="geometry" />
        </mxCell>
        <mxCell id="4" value="Deployment" style="whiteSpace=wrap;strokeWidth=2;" vertex="1" parent="1">
          <mxGeometry x="9" y="775" width="328" height="99" as="geometry" />
        </mxCell>
        <mxCell id="5" value="Model Evaluation" style="whiteSpace=wrap;strokeWidth=2;" vertex="1" parent="1">
          <mxGeometry x="21" y="626" width="304" height="99" as="geometry" />
        </mxCell>
        <mxCell id="6" value="Model Training" style="whiteSpace=wrap;strokeWidth=2;" vertex="1" parent="1">
          <mxGeometry x="80" y="379" width="452" height="197" as="geometry" />
        </mxCell>
        <mxCell id="7" value="Preprocessing" style="whiteSpace=wrap;strokeWidth=2;" vertex="1" parent="1">
          <mxGeometry x="590" y="255" width="324" height="1039" as="geometry" />
        </mxCell>
        <mxCell id="8" value="Data Collection" style="whiteSpace=wrap;strokeWidth=2;" vertex="1" parent="1">
          <mxGeometry x="625" y="8" width="306" height="197" as="geometry" />
        </mxCell>
        <mxCell id="9" value="Collect training images" style="whiteSpace=wrap;strokeWidth=2;" vertex="1" parent="1">
          <mxGeometry x="670" y="33" width="225" height="49" as="geometry" />
        </mxCell>
        <mxCell id="10" value="Annotate images" style="whiteSpace=wrap;strokeWidth=2;" vertex="1" parent="1">
          <mxGeometry x="693" y="132" width="180" height="49" as="geometry" />
        </mxCell>
        <mxCell id="11" value="Normalize images" style="whiteSpace=wrap;strokeWidth=2;" vertex="1" parent="1">
          <mxGeometry x="625" y="280" width="187" height="49" as="geometry" />
        </mxCell>
        <mxCell id="12" value="Augment data" style="whiteSpace=wrap;strokeWidth=2;" vertex="1" parent="1">
          <mxGeometry x="719" y="1221" width="160" height="49" as="geometry" />
        </mxCell>
        <mxCell id="13" value="Build initial model" style="whiteSpace=wrap;strokeWidth=2;" vertex="1" parent="1">
          <mxGeometry x="267" y="404" width="192" height="49" as="geometry" />
        </mxCell>
        <mxCell id="14" value="Tune hyperparameters" style="whiteSpace=wrap;strokeWidth=2;" vertex="1" parent="1">
          <mxGeometry x="155" y="503" width="220" height="49" as="geometry" />
        </mxCell>
        <mxCell id="15" value="Test model performance" style="whiteSpace=wrap;strokeWidth=2;" vertex="1" parent="1">
          <mxGeometry x="56" y="651" width="234" height="49" as="geometry" />
        </mxCell>
        <mxCell id="16" value="Deploy model in production" style="whiteSpace=wrap;strokeWidth=2;" vertex="1" parent="1">
          <mxGeometry x="44" y="800" width="258" height="49" as="geometry" />
        </mxCell>
        <mxCell id="17" value="Monitor model performance" style="whiteSpace=wrap;strokeWidth=2;" vertex="1" parent="1">
          <mxGeometry x="43" y="948" width="260" height="49" as="geometry" />
        </mxCell>
        <mxCell id="18" value="Collect more data" style="whiteSpace=wrap;strokeWidth=2;" vertex="1" parent="1">
          <mxGeometry x="278" y="1097" width="189" height="49" as="geometry" />
        </mxCell>
        <mxCell id="19" value="" style="curved=1;startArrow=none;endArrow=block;exitX=0.5;exitY=0.99;entryX=0.5;entryY=-0.01;" edge="1" parent="1" source="9" target="10">
          <mxGeometry relative="1" as="geometry">
            <Array as="points" />
          </mxGeometry>
        </mxCell>
        <mxCell id="20" value="" style="curved=1;startArrow=none;endArrow=block;exitX=0.32;exitY=0.99;entryX=0.5;entryY=0.01;" edge="1" parent="1" source="10" target="11">
          <mxGeometry relative="1" as="geometry">
            <Array as="points">
              <mxPoint x="718" y="205" />
            </Array>
          </mxGeometry>
        </mxCell>
        <mxCell id="21" value="" style="curved=1;startArrow=none;endArrow=block;exitX=0.67;exitY=0.99;entryX=0.65;entryY=-0.01;" edge="1" parent="1" source="10" target="12">
          <mxGeometry relative="1" as="geometry">
            <Array as="points">
              <mxPoint x="847" y="205" />
              <mxPoint x="847" y="1196" />
            </Array>
          </mxGeometry>
        </mxCell>
        <mxCell id="22" value="" style="curved=1;startArrow=none;endArrow=block;exitX=0.36;exitY=1;entryX=1;entryY=0.17;" edge="1" parent="1" source="11" target="13">
          <mxGeometry relative="1" as="geometry">
            <Array as="points">
              <mxPoint x="664" y="354" />
              <mxPoint x="664" y="379" />
            </Array>
          </mxGeometry>
        </mxCell>
        <mxCell id="23" value="" style="curved=1;startArrow=none;endArrow=block;exitX=0.27;exitY=-0.01;entryX=0.7;entryY=0.99;" edge="1" parent="1" source="12" target="13">
          <mxGeometry relative="1" as="geometry">
            <Array as="points">
              <mxPoint x="725" y="1196" />
              <mxPoint x="725" y="601" />
              <mxPoint x="441" y="576" />
              <mxPoint x="441" y="478" />
            </Array>
          </mxGeometry>
        </mxCell>
        <mxCell id="24" value="" style="curved=1;startArrow=none;endArrow=block;exitX=0.25;exitY=0.99;entryX=0.5;entryY=-0.01;" edge="1" parent="1" source="13" target="14">
          <mxGeometry relative="1" as="geometry">
            <Array as="points">
              <mxPoint x="265" y="478" />
            </Array>
          </mxGeometry>
        </mxCell>
        <mxCell id="25" value="" style="curved=1;startArrow=none;endArrow=block;exitX=0.29;exitY=0.98;entryX=0.5;entryY=0;" edge="1" parent="1" source="14" target="15">
          <mxGeometry relative="1" as="geometry">
            <Array as="points">
              <mxPoint x="173" y="576" />
            </Array>
          </mxGeometry>
        </mxCell>
        <mxCell id="26" value="" style="curved=1;startArrow=none;endArrow=block;exitX=0.5;exitY=1;entryX=0.5;entryY=0;" edge="1" parent="1" source="15" target="16">
          <mxGeometry relative="1" as="geometry">
            <Array as="points" />
          </mxGeometry>
        </mxCell>
        <mxCell id="27" value="" style="curved=1;startArrow=none;endArrow=block;exitX=0.5;exitY=0.99;entryX=0.5;entryY=0.01;" edge="1" parent="1" source="16" target="17">
          <mxGeometry relative="1" as="geometry">
            <Array as="points" />
          </mxGeometry>
        </mxCell>
        <mxCell id="28" value="" style="curved=1;startArrow=none;endArrow=block;exitX=0.5;exitY=1;entryX=0;entryY=0.02;" edge="1" parent="1" source="17" target="18">
          <mxGeometry relative="1" as="geometry">
            <Array as="points">
              <mxPoint x="173" y="1072" />
            </Array>
          </mxGeometry>
        </mxCell>
        <mxCell id="29" value="" style="curved=1;startArrow=none;endArrow=block;exitX=1;exitY=0.26;entryX=0.64;entryY=1;" edge="1" parent="1" source="18" target="11">
          <mxGeometry relative="1" as="geometry">
            <Array as="points">
              <mxPoint x="773" y="1072" />
              <mxPoint x="773" y="354" />
            </Array>
          </mxGeometry>
        </mxCell>
        <mxCell id="30" value="" style="curved=1;startArrow=none;endArrow=block;exitX=0.5;exitY=0.99;entryX=0.11;entryY=-0.01;" edge="1" parent="1" source="18" target="12">
          <mxGeometry relative="1" as="geometry">
            <Array as="points">
              <mxPoint x="373" y="1171" />
              <mxPoint x="671" y="1196" />
            </Array>
          </mxGeometry>
        </mxCell>
        <mxCell id="31" value="" style="curved=1;startArrow=none;endArrow=block;exitX=0.73;exitY=0;entryX=0.75;entryY=0.99;" edge="1" parent="1" source="18" target="13">
          <mxGeometry relative="1" as="geometry">
            <Array as="points">
              <mxPoint x="461" y="1072" />
              <mxPoint x="461" y="478" />
            </Array>
          </mxGeometry>
        </mxCell>
        <mxCell id="32" value="" style="curved=1;startArrow=none;endArrow=block;exitX=0.46;exitY=0;entryX=0.71;entryY=0.98;" edge="1" parent="1" source="18" target="14">
          <mxGeometry relative="1" as="geometry">
            <Array as="points">
              <mxPoint x="358" y="1072" />
              <mxPoint x="358" y="576" />
            </Array>
          </mxGeometry>
        </mxCell>
      </root>
    </mxGraphModel>
  </diagram>
</mxfile>
